# xmcd
# Track frame offsets:
# 150
# 9450
# 26850
# 48525
# 61950
# 80700
# 93975
# 108225
# 116277
# 135450
# 153150
# 173025
# 183825
# 199500
# 213000
# 225900
#
# Disc length: 3196 seconds
# Revision: 2
# Processed by: cddbd v1.5.2PL0 Copyright (c) Steve Scherf et al.
# Submitted via: VisiTrax 2.11.2.271 - For more info visit www.synapsa.com
#
DISCID=bd0c7a10
DTITLE=Slim Dusty - Slim Dusty 'Live' At Tamworth
DYEAR=1973
DGENRE=Australian Country
TTITLE0=Slim Dusty - Pickin' and Singin'
TTITLE1=Slim Dusty - Oldtime Drover's Lament
TTITLE2=Slim Dusty - Old Gidgee Tree
TTITLE3=Slim Dusty - Election Day
TTITLE4=Slim Dusty With Joy McKean - If I Were Free
TTITLE5=Slim Dusty - Country Livin'
TTITLE6=Slim Dusty With Joy McKean - Louisiana Man
TTITLE7=Slim Dusty - Cunnamulla Feller
TTITLE8=Slim Dusty - End Of The Pub
TTITLE9=Slim Dusty - A Picture Of Home
TTITLE10=Slim Dusty With Joy McKean - Banks Of The Ohio
TTITLE11=Slim Dusty - Middleton's Rouseabout
TTITLE12=Slim Dusty - Kelly's Offsider
TTITLE13=Slim Dusty - The Lights On The Hill
TTITLE14=Slim Dusty With Joy McKean - My Clinch Mountain Home
TTITLE15=Slim Dusty - Glory Bound Train
EXTD=1996 EMI Music Australia
EXTT0=
EXTT1=
EXTT2=
EXTT3=
EXTT4=
EXTT5=
EXTT6=
EXTT7=
EXTT8=
EXTT9=
EXTT10=
EXTT11=
EXTT12=
EXTT13=
EXTT14=
EXTT15=
PLAYORDER=
